<?xml version="1.0" encoding="utf-8"?>
<!-- Generator: Adobe Illustrator 21.1.0, SVG Export Plug-In . SVG Version: 6.00 Build 0)  -->
<svg version="1.1" id="Layer_1" xmlns="http://www.w3.org/2000/svg" xmlns:xlink="http://www.w3.org/1999/xlink" x="0px" y="0px"
	 viewBox="0 0 300 104.9" style="enable-background:new 0 0 300 104.9;" xml:space="preserve" width="300" height="105">
<style type="text/css">
	.st0{fill:#FFF5D2;}
	.st1{fill:#201F1B;}
	.st2{fill:#FFDE6C;}
	.st3{fill:#FFFFFF;}
</style>
<g>
	<path class="st0" d="M286.9,20.2l-104.4-6.9c-8.7-8-20-12.8-32.5-12.8c-12.4,0-23.8,4.8-32.5,12.8L13.1,20.2
		c-7.7,0-12.6,5.1-12.6,11.4v40.2c0,6.3,5,11.4,12.6,11.4l103.9,8c8.8,8.2,20.3,13.3,33,13.3c12.6,0,24.1-5,32.8-13.1l104.1-8.1
		c7.7,0,12.6-5.1,12.6-11.4V31.6C299.5,25.3,294.6,20.2,286.9,20.2z"/>
	<path class="st1" d="M116.8,91.5l-103.7-8C5.2,83.5,0,78.3,0,71.8l0,0V31.6c0-6.5,5.2-11.8,13.1-11.8l0,0l104.2-6.9
		C126,5,137.5,0.1,150,0.1l0,0c12.5,0,24,4.8,32.7,12.8l0,0l104.2,6.9c7.9,0,13.1,5.3,13.1,11.8l0,0v40.2c0,6.5-5.2,11.8-13.1,11.8
		l0,0l-103.9,8.1c-8.8,8.2-20.4,13.1-33.1,13.1l0,0C137.2,104.8,125.6,99.7,116.8,91.5L116.8,91.5z M117.9,13.6l-0.1,0.1L13.1,20.6
		c-7.4,0-12.2,4.9-12.2,11l0,0v40.2c0,6.1,4.8,11,12.2,11l0,0l104.1,8l0.1,0.1C126,99,137.5,104,150,104l0,0
		c12.5,0,23.8-4.9,32.5-13l0,0l0.1-0.1l104.3-8.1c7.4,0,12.2-4.9,12.2-11l0,0V31.6c0-6.1-4.8-11-12.2-11l0,0v-0.4l0,0.4l-104.6-6.9
		l-0.1-0.1C173.5,5.6,162.3,0.9,150,0.9l0,0C137.7,0.9,126.5,5.6,117.9,13.6L117.9,13.6z"/>
	<path class="st1" d="M286.9,22.5h-0.1l-105.6-7l-0.7-0.7c-8.5-7.8-19.3-12-30.4-12c-11.2,0-22,4.3-30.4,12.1l-0.7,0.7l-105.6,7
		h-0.1c-6.1,0-9.9,4.1-9.9,9.1v40.2c0,5,3.7,9.1,9.9,9.1h0.1l105.1,8.1l0.7,0.7c8.5,8.1,19.5,12.5,30.9,12.5
		c11.3,0,22.2-4.4,30.8-12.3l0.7-0.7l105.3-8.2h0.1c6.1,0,9.9-4.1,9.9-9.1V31.6C296.8,26.6,293,22.5,286.9,22.5z M294,71.8
		c0,3.8-2.5,6.8-7.1,6.8h-0.3l-106.5,8.3l-1.4,1.4c-8,7.5-18.2,11.6-28.7,11.6c-10.6,0-20.8-4.2-28.8-11.7l-1.5-1.4L13.4,78.6h-0.3
		c-4.6,0-7.1-3.1-7.1-6.8V31.6c0-3.8,2.5-6.8,7.1-6.8h0.2l106.8-7.1l1.5-1.4C129.6,9.1,139.7,5,150,5c10.3,0,20.4,4,28.3,11.3
		l1.5,1.4l106.9,7.1h0.2c4.6,0,7.1,3.1,7.1,6.8V71.8z"/>
	<g>
		<path class="st1" d="M192.9,57c0.3-1.7,1.5-3.2,3.6-3.2c0.7,0,1.2,0.2,1.7,0.6c-0.5,0.6-0.9,1.6-0.9,2.6c0,1.9,1.3,2.8,2.6,2.8
			c1.6,0,3.3-1.3,3.3-3.3c0-3.2-6.9-2.8-6.9-9.1c0-3.3,2.3-6.4,7.2-6.4c3.6,0,5.3,1.3,5.3,4.1c0,2.3-1.4,3.5-2.9,3.4
			c-0.5,0-1.1-0.2-1.7-0.6c0.4-0.5,0.7-1.4,0.7-2.3c0-1.5-0.9-2.3-1.9-2.3c-1.1,0-2.4,1.1-2.4,3.4c0,4.4,6.9,3.5,6.9,8.8
			c0,4.1-2.4,7.1-8.6,7.1C194.3,62.5,192.4,59.8,192.9,57z"/>
		<path class="st1" d="M224.7,44.7c0.2-0.7-0.2-1-0.9-1h-5.6l-2.5,11.8c-0.5,2.1,0.1,3.1,0.9,3.1c0.8,0,1.7-0.5,2.3-2
			c0.8,0,1.3,0.4,1.3,1.1c0,2.9-3.4,4.9-5.8,4.9c-2.1,0-5-1.2-4-6.2l2.7-12.6h-2.1c-0.2-1.3,0.5-2.4,1.8-2.4h0.8l0.8-3.4
			c0.4-1.9,2-2.6,3.5-2.6c0.8,0,1.5,0.2,2,0.5l-1.2,5.5h9.1c1.5,0,2.3,0.7,2,2.3l-0.5,2.7c2.1-4,4.4-5.2,6.4-5.2
			c2.3,0,3.5,1.8,3.5,3.7c0,2.4-1.8,4.9-5.4,4.2c0.8-1.6,0.5-3.2-0.8-3.2c-1.5,0-3.4,2.5-5.1,7.8l-1.3,6.3c-0.4,1.9-2,2.6-3.5,2.6
			c-0.8,0-1.5-0.2-2-0.5L224.7,44.7z"/>
		<path class="st1" d="M244.8,55.8c0.4,2.3,2,3.1,3.9,3.1c3,0,6.9-2.1,8.7-4.5c1.1-0.2,1.5,0.7,1,1.4c-2.9,4.2-7.7,6.7-11.8,6.7
			c-2.8,0-5.2-1.1-6.4-3.6c-0.2,0.1-0.3,0.2-0.5,0.2c-1.6,0.4-3.1-0.8-2.8-2.4c1,0.1,1.8-0.1,2.7-0.5c0-0.4-0.1-0.8-0.1-1.2
			c0-5.4,3.6-14.1,10.5-14.1c3.8,0,4.8,2.1,4.8,4C254.8,48.4,252.9,51.3,244.8,55.8z M244.7,54c4.1-2.6,6.8-5.5,6.8-8.2
			c0-1-0.5-1.6-1.2-1.6C246.1,44.1,244.8,51,244.7,54z"/>
		<path class="st1" d="M262.2,55.8c0.4,2.3,2,3.1,3.9,3.1c3,0,6.9-2.1,8.7-4.5c1.1-0.2,1.5,0.7,1,1.4c-2.9,4.2-7.7,6.7-11.8,6.7
			c-3.9,0-7.1-2.3-7.1-7.5c0-5.4,3.6-14.1,10.5-14.1c3.8,0,4.8,2.1,4.8,4C272.1,48.4,270.2,51.3,262.2,55.8z M262,54
			c4.1-2.6,6.8-5.5,6.8-8.2c0-1-0.5-1.6-1.2-1.6C263.5,44.1,262.2,51,262,54z"/>
		<path class="st1" d="M282,43.7l-2.5,11.8c-0.5,2.1,0.1,3.1,0.9,3.1c0.8,0,1.7-0.5,2.3-2c0.8,0,1.3,0.4,1.3,1.1
			c0,2.9-3.4,4.9-5.8,4.9c-2.1,0-5-1.2-4-6.2l2.7-12.6h-2.1c-0.2-1.3,0.5-2.4,1.8-2.4h0.8l0.8-3.4c0.4-1.9,2-2.6,3.5-2.6
			c0.8,0,1.5,0.2,2,0.5l-1.2,5.5h3.1c0.2,1.3-0.5,2.4-1.8,2.4H282z"/>
	</g>
	<g>
		<path class="st1" d="M24.6,62.5c-3.9,0-7.1-2.3-7.1-7.5c0-6.4,4.4-14.1,10.7-14.1c3.4,0,5.1,1.3,5.1,4.1c0,2.3-1.4,3.4-2.9,3.4
			c-0.5,0-1.2-0.2-1.7-0.6c0.5-1,0.7-2.1,0.7-2.7c0-0.8-0.5-1.2-1.5-1.2c-2.3,0-5.1,4.5-5.1,10.5c0,3.3,1.8,4.5,4,4.5
			c3,0,6.9-2.1,8.7-4.5c1.1-0.2,1.5,0.7,1,1.4C33.6,60,28.7,62.5,24.6,62.5z"/>
		<path class="st1" d="M52,48.3c0,6.2-4.5,14.1-11,14.1c-4.3,0-6.2-3.5-6.2-7.4c0-6.3,4.4-14.2,10.7-14.2C50.1,40.9,52,44.2,52,48.3
			z M40.2,53.7c0,3.7,1.3,5.1,2.7,5.1c3.3,0,6-6.4,6-10.8c0-2.3-0.7-4-2.4-4C42.7,44,40.2,49.6,40.2,53.7z"/>
		<path class="st1" d="M67.2,43.7h-7l-4,18.5c-2.4,11.3-4.6,16.1-10.5,16.1c-2.5,0-4.6-1.4-4.6-4.9c0-0.7,0.5-1.1,1.4-1.1
			c0.3,1.5,1.3,2.3,2.9,2.3c2.8,0,4.1-3.8,5.9-12.4l4-18.5h-2.1c-0.2-1.3,0.5-2.4,1.8-2.4h0.8l0.3-1.5c1.2-5.4,4.7-8.7,8.7-8.7
			c4.1,0,5,3.3,3.6,8.7h-1.8c0.7-3.3,0.5-5.7-2-5.7c-1.9,0-3,2.8-3.6,5.9l-0.3,1.3h6.5V43.7z"/>
		<path class="st1" d="M70.7,43.7l-4,18.5c-2.4,11.3-4.6,16.1-10.5,16.1c-2.5,0-4.6-1.4-4.6-4.9c0-0.7,0.5-1.1,1.4-1.1
			c0.3,1.5,1.3,2.3,2.9,2.3c2.8,0,4.1-3.8,5.9-12.4l4-18.5h-2.1c-0.2-1.3,0.5-2.4,1.8-2.4h0.8l0.3-1.5c1.2-5.4,4.7-8.7,8.7-8.7
			c3.6,0,5.3,1.3,5.3,4.1c0,2.3-1.4,3.5-2.9,3.4c-0.5,0-1.1-0.2-1.7-0.6c0.5-1,0.7-2.1,0.7-2.7c0-0.8-0.5-1.2-1.5-1.2
			c-1.9,0-3,2.8-3.6,5.9l-0.3,1.3h3.2c0.2,1.3-0.5,2.4-1.8,2.4H70.7z"/>
		<path class="st1" d="M78.8,55.8c0.4,2.3,2,3.1,3.9,3.1c3,0,6.9-2.1,8.7-4.5c1.1-0.2,1.5,0.7,1,1.4c-2.9,4.2-7.7,6.7-11.8,6.7
			c-2.8,0-5.2-1.1-6.4-3.6c-0.2,0.1-0.3,0.2-0.5,0.2c-1.6,0.4-3.1-0.8-2.8-2.4c1,0.1,1.8-0.1,2.7-0.5c0-0.4-0.1-0.8-0.1-1.2
			c0-5.4,3.6-14.1,10.5-14.1c3.8,0,4.8,2.1,4.8,4C88.8,48.4,86.9,51.3,78.8,55.8z M78.7,54c4.1-2.6,6.8-5.5,6.8-8.2
			c0-1-0.5-1.6-1.2-1.6C80.2,44.1,78.8,51,78.7,54z"/>
		<path class="st1" d="M90.8,55c0-5.4,3.6-14.1,10.5-14.1c3.8,0,4.8,2.1,4.8,4c0,3.6-1.9,6.4-10,10.9c0.4,2.1,1.8,3.1,3.6,3.1
			c1.8,0,3.2-0.9,3.9-2.4c0.8,0,1.3,0.4,1.3,1.1c0,2.3-3.8,4.9-7.5,4.9C93.6,62.5,90.8,60.5,90.8,55z M96,54
			c4.1-2.6,6.8-5.5,6.8-8.2c0-1-0.5-1.6-1.2-1.6C97.5,44.1,96.1,51,96,54z"/>
	</g>
	<path class="st2" d="M186.6,49.8c-0.4-1-1.6-0.7-2.1,0.3c-0.5,1-1.4,2.2-3.8,2c-3.3-0.3-5.7-3.9-6-4.4c-0.5-10.3-5.8-19.3-5.8-19.3
		s-5.9,10.4-21.7,15.4c-17.5,5.5-28.1,2.9-28.1,2.9s1.2,4,4.1,9.4c-2.1,2.1-3.9,5.3-3.4,9.6c0.8,6.1,7.8,7.5,9.3,7.5
		c1.5,0,1.8-0.1,1.7,1.4c0,1.5,1.5,1.5,2.3,0.6c0.8-0.9,2-3.1,0.4-4.8c-1.6-1.6-3.4-0.1-5-1.3c-1.6-1.1-0.6-3.2,0.6-3.9c0,0,0,0,0,0
		c2.2,2.9,4.9,5.8,8,8.6c0.3,0.3,0.6,0.5,0.9,0.7c-1.5,2.5-3.2,5.4-4,7.8c-0.9,2.7,0.3,4.3,1.2,5.3c0.9,0.9,3.2,2.2,4.1,1.2
		c0.5-0.6,0.2-1.2-0.4-1.9c-0.8-0.8-0.9-1.5,0.1-2.6c1.7-1.8,3-2.7,5.8-4.7c9.7,6.2,17,7.1,17,7.1s4.5,0.8,6.7-2.5
		c1.8-2.7,0-3.6-1.5-2.4c-0.8,0.6-2.2,0.8-3.3,0.1c-2.7-1.5-5.8-4.7-7.6-7.7c0,0,13.1-2.6,17.4-17.2l0.1,0.1
		c1.3,0.2,3.3,0.8,7.5-0.3C184.6,56,187.7,52.3,186.6,49.8z"/>
	<g>
		
			<ellipse transform="matrix(8.533549e-02 -0.9964 0.9964 8.533549e-02 108.7618 153.912)" class="st1" cx="138.2" cy="17.7" rx="2.8" ry="2.8"/>
		<g>
			<path class="st3" d="M141,18c0,0,0,0.1,0,0.2c0,0.1,0,0.3-0.1,0.5c0,0.1-0.1,0.2-0.1,0.4c-0.1,0.1-0.2,0.3-0.2,0.4
				c-0.1,0.1-0.2,0.3-0.4,0.4c-0.1,0.1-0.3,0.3-0.5,0.4c-0.4,0.2-0.8,0.5-1.4,0.5l-0.2,0l-0.1,0l-0.1,0c0,0-0.1,0,0,0h0l0,0l0,0
				c-0.1,0-0.2,0-0.4,0c-0.1,0-0.1,0-0.2,0l-0.2-0.1c-0.2,0-0.3-0.1-0.5-0.1c-0.6-0.2-1.1-0.7-1.5-1.3c-0.2-0.3-0.3-0.6-0.4-1
				c0-0.2-0.1-0.3-0.1-0.5l0-0.3l0-0.1l0-0.1v0v0v0c0,0,0,0.1,0-0.1l0.1-0.4c0-0.1,0.1-0.3,0.2-0.5c0.1-0.4,0.4-0.7,0.6-0.9
				c0.5-0.5,1.1-0.8,1.7-1c0.6-0.1,1.2-0.1,1.7,0.1c0.2,0.1,0.5,0.2,0.7,0.3c0.2,0.1,0.4,0.3,0.6,0.4c0.1,0.2,0.3,0.3,0.4,0.5
				c0.1,0.2,0.2,0.3,0.3,0.5c0.1,0.2,0.1,0.3,0.2,0.5c0,0.1,0.1,0.3,0.1,0.4c0.1,0.2,0,0.4,0,0.6C141,17.9,141,18,141,18z M141,18
				c0,0,0-0.1,0-0.2c0-0.1,0-0.3-0.1-0.6c0-0.1-0.1-0.2-0.1-0.4c-0.1-0.1-0.1-0.3-0.2-0.4c-0.1-0.1-0.2-0.3-0.3-0.4
				c-0.1-0.1-0.3-0.2-0.5-0.4c-0.2-0.1-0.4-0.2-0.5-0.2c-0.2,0-0.4-0.1-0.6-0.1c-0.4,0-0.9,0.1-1.2,0.3c-0.4,0.2-0.7,0.5-0.9,0.8
				c-0.1,0.2-0.2,0.4-0.2,0.5c-0.1,0.1-0.1,0.4-0.2,0.7c0-0.2,0,0,0-0.1v0l0,0l0,0l0,0l0,0.1l0,0.1c0,0.1,0,0.2,0,0.3
				c0,0.2,0.1,0.4,0.2,0.6c0.2,0.4,0.4,0.7,0.7,1c0.1,0.1,0.2,0.1,0.2,0.2l0.1,0.1c0,0,0.1,0,0.2,0.1c0.1,0,0.2,0.1,0.4,0.1l0,0l0,0
				l0,0c0,0-0.1,0,0,0l0,0l0.1,0l0.2,0c0.2,0.1,0.4,0,0.6,0c0.2,0,0.4-0.1,0.6-0.1c0.2-0.1,0.4-0.2,0.5-0.3c0.1-0.1,0.3-0.2,0.4-0.3
				c0.1-0.1,0.2-0.3,0.3-0.4c0.1-0.1,0.1-0.2,0.2-0.4c0.1-0.2,0.1-0.4,0.2-0.5C141,18,141,18,141,18z"/>
		</g>
	</g>
	<g>
		
			<ellipse transform="matrix(8.552931e-02 -0.9963 0.9963 8.552931e-02 102.8257 142.8099)" class="st1" cx="129.2" cy="15.4" rx="1.3" ry="1.3"/>
		<g>
			<path class="st3" d="M130.5,15.5C130.5,15.5,130.5,15.5,130.5,15.5c0,0.2,0,0.2-0.1,0.3c0,0.1-0.1,0.2-0.2,0.4
				c0,0.1-0.1,0.1-0.2,0.2c-0.1,0.1-0.1,0.1-0.2,0.2c-0.2,0.1-0.4,0.3-0.7,0.3l-0.1,0l-0.1,0l0,0c0,0,0,0,0,0h0l0,0l0,0l-0.2,0
				c-0.1,0-0.1,0-0.2,0c-0.1,0-0.2,0-0.3-0.1c-0.3-0.1-0.6-0.3-0.8-0.6c-0.1-0.2-0.2-0.3-0.2-0.5c0-0.1-0.1-0.2-0.1-0.3l0-0.1l0-0.1
				l0,0l0,0v0v0c0,0,0,0.1,0-0.1c0-0.1,0-0.2,0.1-0.5c0.1-0.2,0.2-0.4,0.3-0.5c0.3-0.3,0.6-0.4,0.9-0.5c0.3,0,0.7,0,0.9,0.1
				c0.1,0,0.2,0.1,0.3,0.2c0.1,0.1,0.2,0.2,0.3,0.2c0.1,0.1,0.1,0.2,0.2,0.3c0,0.1,0.1,0.2,0.1,0.2c0.1,0.2,0.1,0.3,0.1,0.4
				C130.5,15.3,130.5,15.3,130.5,15.5C130.5,15.5,130.5,15.5,130.5,15.5z M130.5,15.5C130.5,15.5,130.5,15.5,130.5,15.5
				c0-0.2,0-0.2,0-0.4c0-0.1,0-0.1-0.1-0.2c0-0.1-0.1-0.1-0.1-0.2c0-0.1-0.1-0.1-0.2-0.2c-0.1-0.1-0.1-0.1-0.2-0.1
				c-0.1,0-0.2-0.1-0.3-0.1c-0.1,0-0.1,0-0.3,0c-0.2,0-0.3,0.1-0.5,0.2c-0.1,0.1-0.2,0.2-0.3,0.4c0,0.1-0.1,0.1,0,0.2
				c0,0,0,0.2-0.1,0.3c0-0.1,0,0,0-0.1v0l0,0v0l0,0l0,0l0,0c0,0,0,0.1,0,0.1c0,0.1,0,0.1,0,0.2c0,0.1,0.1,0.3,0.2,0.4l0.1,0.1
				c0,0,0,0.1,0.1,0.1l0.2,0.1l0,0l0,0l0,0c0,0-0.1,0,0,0l0,0l0,0l0.1,0c0.2,0.1,0.4,0.1,0.5,0c0.1,0,0.2-0.1,0.2-0.1
				c0.1,0,0.1-0.1,0.2-0.1c0-0.1,0.1-0.1,0.1-0.2c0-0.1,0.1-0.1,0.1-0.2C130.5,15.7,130.5,15.7,130.5,15.5
				C130.5,15.5,130.5,15.5,130.5,15.5z"/>
		</g>
	</g>
	<g>
		
			<ellipse transform="matrix(8.531328e-02 -0.9964 0.9964 8.531328e-02 82.9473 143.1641)" class="st1" cx="119.4" cy="26.4" rx="4" ry="4"/>
		<g>
			<path class="st3" d="M123.4,26.7c0,0,0,0.1,0,0.3c0,0.2-0.1,0.4-0.2,0.8c-0.2,0.6-0.7,1.6-1.7,2.2c-0.5,0.3-1.2,0.6-1.9,0.7
				c-0.2,0-0.4,0-0.6,0c-0.2,0-0.3,0-0.6,0c-0.4-0.1-0.8-0.2-1.2-0.3c-0.4-0.2-0.7-0.4-1.1-0.7c-0.3-0.3-0.6-0.6-0.9-1
				c-0.2-0.4-0.4-0.8-0.5-1.3c-0.1-0.5-0.1-0.9-0.1-1.4c0-0.3,0-0.4,0.1-0.7c0.1-0.3,0.1-0.5,0.2-0.7c0.2-0.4,0.4-0.8,0.7-1.2
				c0.3-0.3,0.7-0.6,1-0.9c0.4-0.2,0.8-0.4,1.2-0.5c0.8-0.2,1.7-0.1,2.3,0.1c0.7,0.2,1.3,0.6,1.8,1c0.9,0.9,1.2,1.8,1.3,2.5
				c0.1,0.3,0.1,0.6,0.1,0.8C123.4,26.6,123.4,26.7,123.4,26.7z M123.4,26.7c0,0,0-0.1,0-0.3c0-0.1,0-0.2,0-0.3c0-0.1,0-0.3-0.1-0.4
				c-0.1-0.3-0.2-0.7-0.4-1.1c-0.2-0.4-0.6-0.8-1.1-1.1c-0.5-0.3-1.1-0.5-1.6-0.6c-0.6-0.1-1.3,0.1-1.8,0.3
				c-0.6,0.3-1.1,0.7-1.4,1.2c-0.2,0.3-0.3,0.5-0.4,0.8c0,0.1-0.1,0.3-0.1,0.4c0,0.1-0.1,0.4-0.1,0.5c0,0.3,0,0.6,0,0.9
				c0.1,0.3,0.1,0.6,0.3,0.9c0.3,0.6,0.7,1.1,1.2,1.4c0.3,0.2,0.5,0.3,0.8,0.4c0.1,0.1,0.3,0.1,0.5,0.1c0.1,0,0.3,0.1,0.4,0.1
				c0.6,0.1,1.2-0.1,1.7-0.3c0.5-0.2,0.9-0.6,1.2-0.9c0.3-0.3,0.5-0.7,0.6-1c0.1-0.2,0.1-0.3,0.1-0.4c0-0.1,0.1-0.2,0.1-0.3
				C123.4,26.8,123.4,26.7,123.4,26.7z"/>
		</g>
	</g>
	<g>
		<path class="st1" d="M163.9,57.3c0,0,0.1,0,0.2,0.1l0.6,0.3c0.2,0.1,0.4,0.2,0.6,0.2c0.2,0.1,0.4,0.1,0.6,0.2l0.3,0.1
			c0.1,0,0.2,0.1,0.3,0.1c0.2,0,0.4,0.1,0.7,0.2c-0.2,0.1-0.5,0.1-0.7,0.2c-0.1,0-0.2,0.1-0.4,0.1l-0.4,0c-0.2,0-0.5,0.1-0.7,0
			c-0.2,0-0.5,0-0.7-0.1c-0.5-0.1-1-0.2-1.4-0.3c-0.2-0.1-0.5-0.1-0.7-0.2c-0.2-0.1-0.4-0.2-0.7-0.3c-0.4-0.2-0.6-0.6-0.4-1
			c0.1-0.2,0.2-0.3,0.4-0.4l0.1,0c0.1,0,0.3-0.1,0.4-0.2l0.5-0.2c0.3-0.1,0.6-0.3,0.9-0.5c0.3-0.2,0.6-0.3,0.9-0.5
			c0.1-0.1,0.3-0.2,0.4-0.3c0.1-0.1,0.3-0.2,0.4-0.3c0.1-0.1,0.3-0.2,0.4-0.3c0.1-0.1,0.3-0.2,0.4-0.3c0.1-0.1,0.3-0.2,0.4-0.3
			c0.1-0.1,0.3-0.2,0.4-0.3c0.1-0.1,0.2-0.2,0.4-0.4c0.1-0.1,0.2-0.2,0.3-0.4c0.1-0.1,0.2-0.3,0.4-0.4c0.1-0.1,0.2-0.3,0.4-0.4
			c0,0.2-0.1,0.4-0.1,0.6c0,0.2-0.1,0.4-0.1,0.5c-0.1,0.2-0.1,0.4-0.2,0.5c-0.1,0.2-0.2,0.3-0.3,0.5c-0.1,0.2-0.2,0.3-0.3,0.5
			c-0.1,0.2-0.2,0.3-0.3,0.5c-0.2,0.3-0.5,0.6-0.8,0.8c-0.3,0.3-0.6,0.5-0.9,0.7c-0.2,0.1-0.3,0.2-0.5,0.3c-0.2,0.1-0.3,0.2-0.5,0.3
			C164.1,57.1,164,57.2,163.9,57.3z"/>
	</g>
	<g>
		<path class="st1" d="M149.8,19.2c-4.3,0.8-6.8,3.1-8.3,5.4l0,0c-11.3-5.7-18.6,4.3-17.3,10.3v0c-0.8,0.2-1.5,0.6-2.3,1.1
			c-5.4,3.6-2.4,9.8-2.4,9.8c0.9,0.1,11.2,2.1,27.8-3.4c15.3-5,20.3-14.1,20.9-15C168.2,27.4,160.6,17.2,149.8,19.2z"/>
		<path class="st3" d="M168.6,27.1c-0.5-0.7-1-1.3-1.5-1.8c-0.5-0.6-1.1-1.1-1.7-1.7c-0.6-0.5-1.2-1.1-1.8-1.5
			c-0.6-0.5-1.3-0.9-2-1.3c-0.7-0.4-1.4-0.8-2.2-1.1c-0.4-0.2-0.7-0.3-1.1-0.5c-0.4-0.1-0.8-0.3-1.2-0.4c-0.8-0.2-1.6-0.4-2.4-0.5
			c-0.8-0.1-1.6-0.2-2.4-0.1l-0.6,0l-0.6,0.1c-0.4,0-0.8,0.1-1.2,0.2c-0.8,0.2-1.6,0.4-2.4,0.6c-0.8,0.3-1.5,0.6-2.2,1.1
			c-0.7,0.4-1.4,0.9-2,1.5c-0.9,0.8-1.6,1.7-2.2,2.7c-0.4-0.2-0.7-0.4-1.1-0.5l-0.7-0.3l-0.7-0.3c-0.2-0.1-0.5-0.1-0.8-0.2l-0.4-0.1
			l-0.4-0.1c-0.5-0.1-1-0.2-1.6-0.3l-0.8-0.1l-0.8,0c-0.5,0-1.1,0.1-1.6,0.2c-0.5,0.1-1.1,0.2-1.6,0.4c-0.5,0.2-1,0.4-1.5,0.7
			c-0.5,0.3-1,0.6-1.4,0.9c-0.4,0.3-0.9,0.7-1.2,1.1c-0.2,0.2-0.4,0.4-0.5,0.6l-0.5,0.7c-0.3,0.5-0.6,0.9-0.8,1.4
			c-0.2,0.5-0.5,1-0.6,1.5c-0.2,0.5-0.3,1.1-0.4,1.6c-0.1,0.5-0.1,1.1-0.1,1.7c0,0.3,0,0.7,0.1,1c-0.4,0.1-0.8,0.3-1.2,0.5
			c-0.2,0.1-0.5,0.2-0.6,0.4l-0.3,0.2c-0.1,0.1-0.2,0.1-0.3,0.2c-0.4,0.3-0.8,0.6-1.1,0.9c-0.3,0.3-0.7,0.7-1,1.1
			c-0.6,0.8-1,1.8-1.2,2.8c-0.2,1-0.2,2-0.1,2.9c0.1,0.5,0.2,1,0.3,1.4c0.1,0.5,0.3,0.9,0.5,1.4c0.1,0.3,0.4,0.4,0.7,0.5l0.1,0
			l0.8,0.1c0.3,0,0.6,0.1,0.9,0.1c0.6,0.1,1.2,0.1,1.7,0.1c1.2,0.1,2.3,0.1,3.5,0.1c1.2,0,2.3-0.1,3.4-0.2l1.7-0.2l1.7-0.2
			c0.6-0.1,1.1-0.2,1.7-0.3c0.6-0.1,1.1-0.2,1.7-0.3c1.1-0.2,2.2-0.5,3.4-0.8l1.7-0.4l1.7-0.5c1.1-0.3,2.2-0.7,3.2-1.1l0.8-0.3
			c0.3-0.1,0.5-0.2,0.8-0.3c0.5-0.2,1.1-0.4,1.6-0.6c1.1-0.4,2.1-0.9,3.1-1.4c1-0.5,2-1,3-1.6c1-0.6,2-1.2,2.9-1.8
			c0.9-0.6,1.9-1.3,2.8-2c0.9-0.7,1.8-1.5,2.6-2.2c0.8-0.8,1.6-1.6,2.4-2.5c0.8-0.9,1.5-1.8,2.1-2.7
			C168.8,27.5,168.8,27.3,168.6,27.1z M124.5,33.4c0-0.5,0.1-1,0.2-1.4c0.1-0.5,0.3-0.9,0.5-1.4c0.2-0.5,0.4-0.9,0.6-1.3
			c0.2-0.4,0.5-0.8,0.8-1.2l0.4-0.6c0.2-0.2,0.3-0.4,0.5-0.5c0.3-0.3,0.7-0.7,1.1-1c0.4-0.3,0.8-0.6,1.2-0.9
			c0.4-0.3,0.8-0.5,1.3-0.7c0.4-0.2,0.9-0.4,1.4-0.5c0.5-0.2,1-0.3,1.5-0.4l0.8-0.1l0.8,0c0.5,0,1,0,1.5,0.1c0.3,0,0.5,0.1,0.8,0.1
			c0.3,0.1,0.5,0.1,0.8,0.2l0.7,0.2c0.2,0.1,0.5,0.2,0.7,0.3c0.4,0.1,0.7,0.3,1.1,0.5c-0.2,0.3-0.4,0.7-0.5,1
			c-0.3,0.7-0.6,1.5-0.8,2.2c-0.1,0.4-0.2,0.9-0.3,1.3c-0.2,0.1-0.4,0.1-0.6,0.2c-0.5,0.2-1,0.3-1.4,0.6c-0.2,0.1-0.5,0.2-0.7,0.3
			l-0.7,0.4l-0.3,0.2c-0.1,0.1-0.2,0.1-0.3,0.2l-0.6,0.4l-0.1,0.1l0,0l0,0l0,0l0,0l-0.1,0.1l-0.3,0.3c-0.2,0.2-0.4,0.3-0.5,0.5
			c-0.4,0.3-0.7,0.7-1,1.1c-0.3,0.4-0.6,0.8-0.9,1.1c-0.1,0.2-0.2,0.4-0.4,0.6c-0.2-0.1-0.4-0.2-0.6-0.3c-0.4-0.2-0.9-0.4-1.3-0.5
			c-0.9-0.3-1.8-0.5-2.8-0.5c-0.7,0-1.4,0-2.1,0.2C124.5,33.8,124.5,33.6,124.5,33.4z M166,29.9c-0.7,0.9-1.4,1.7-2.2,2.5
			c-0.8,0.8-1.6,1.6-2.5,2.3c-0.9,0.7-1.8,1.4-2.7,2c-1.9,1.2-3.9,2.3-5.9,3.2c-1,0.4-2.1,0.9-3.1,1.2c-0.5,0.2-1.1,0.4-1.6,0.5
			c-0.3,0.1-0.5,0.2-0.8,0.2l-0.8,0.2c-1.1,0.3-2.2,0.6-3.3,0.9l-1.6,0.4l-1.7,0.4c-1.1,0.3-2.2,0.4-3.3,0.6
			c-0.6,0.1-1.1,0.2-1.7,0.3c-0.6,0.1-1.1,0.2-1.7,0.2l-1.7,0.2l-1.7,0.1c-1.1,0.1-2.2,0.1-3.3,0.1c-1.1,0-2.2,0-3.3-0.1
			c-0.6,0-1.1-0.1-1.7-0.1c-0.3,0-0.6-0.1-0.8-0.1l-0.3,0c-0.1-0.2-0.2-0.5-0.2-0.7c-0.1-0.4-0.2-0.8-0.3-1.2
			c-0.1-0.8-0.1-1.6,0-2.4c0.1-0.4,0.2-0.8,0.3-1.1c0.1-0.4,0.3-0.7,0.5-1c0.2-0.3,0.5-0.6,0.7-0.9c0.3-0.3,0.6-0.6,0.9-0.8
			c0.1-0.1,0.2-0.1,0.2-0.2l0.3-0.2c0.2-0.1,0.3-0.2,0.5-0.3c0.4-0.2,0.7-0.4,1.1-0.5c0.8-0.3,1.6-0.4,2.4-0.4
			c0.8,0,1.7,0.1,2.5,0.3c0.4,0.1,0.8,0.2,1.2,0.4c0.2,0.1,0.4,0.2,0.6,0.2c-0.3,0.7-0.6,1.4-0.7,2c-0.2,0.7-0.3,1.4-0.3,2.1
			c0,0.6,0,1.2,0.1,1.6c0.1,0.4,0.2,0.8,0.2,1c0.1,0.2,0.1,0.3,0.1,0.3s-0.1-0.5,0-1.3c0-0.4,0.1-0.9,0.2-1.5
			c0.1-0.3,0.1-0.6,0.2-0.9c0-0.2,0.1-0.3,0.1-0.5c0.1-0.2,0.1-0.3,0.2-0.5c0.3-0.7,0.6-1.3,1-2c0.2-0.3,0.5-0.7,0.7-1
			c0.3-0.3,0.5-0.7,0.8-1c0.3-0.3,0.6-0.6,1-0.9c0.2-0.1,0.4-0.3,0.5-0.4l0.3-0.2l0.1-0.1l0,0l0,0l0,0l0.1-0.1l0.6-0.4
			c0.1-0.1,0.2-0.1,0.3-0.2l0.3-0.2l0.6-0.3c0.2-0.1,0.4-0.2,0.6-0.3c0.4-0.2,0.8-0.3,1.3-0.5c0.4-0.1,0.9-0.3,1.3-0.4
			c0.9-0.2,1.8-0.4,2.7-0.4c0.9-0.1,1.7,0,2.5,0c0.8,0.1,1.6,0.2,2.3,0.3c0.7,0.1,1.3,0.3,1.9,0.5c0.6,0.2,1.1,0.3,1.5,0.5
			c0.4,0.1,0.7,0.3,0.9,0.4c0.2,0.1,0.3,0.1,0.3,0.1s-0.1-0.1-0.3-0.2c-0.2-0.1-0.5-0.3-0.8-0.6c-0.4-0.2-0.8-0.5-1.4-0.8
			c-0.5-0.3-1.2-0.5-1.9-0.8c-0.4-0.1-0.7-0.2-1.1-0.3c-0.4-0.1-0.8-0.2-1.2-0.3c-0.9-0.1-1.8-0.3-2.7-0.2c-0.2,0-0.5,0-0.7,0
			c-0.2,0-0.5,0-0.7,0.1c-0.5,0-1,0.1-1.5,0.2c-0.2,0-0.4,0.1-0.6,0.1c0.1-0.4,0.2-0.7,0.4-1.1c0.3-0.7,0.6-1.4,1-2.1
			c0.8-1.3,1.7-2.5,2.9-3.4c0.6-0.5,1.2-0.9,1.9-1.2c0.7-0.4,1.3-0.6,2-0.9c0.7-0.2,1.4-0.4,2.2-0.5c0.4,0,0.8-0.1,1.1-0.1l0.5,0
			l0.6,0c0.7,0,1.5,0.1,2.2,0.1c0.7,0.1,1.5,0.3,2.2,0.5c0.7,0.2,1.4,0.5,2.1,0.8c0.7,0.3,1.4,0.6,2,1c1.3,0.7,2.6,1.6,3.7,2.5
			c0.6,0.5,1.2,1,1.7,1.5c0.5,0.5,0.9,0.9,1.3,1.4C167.1,28.3,166.6,29.1,166,29.9z"/>
	</g>
	<path class="st1" d="M187,50.4c0-0.2-0.1-0.4-0.1-0.5c-0.1-0.4-0.4-0.8-0.8-1c-0.5-0.2-1-0.1-1.3,0.2c-0.2,0.1-0.4,0.2-0.5,0.4
		c-0.1,0.1-0.2,0.2-0.2,0.3l-0.2,0.2c-0.1,0.1-0.2,0.3-0.3,0.4c-0.1,0.1-0.2,0.2-0.3,0.3c-0.1,0.1-0.2,0.2-0.3,0.2
		c-0.1,0.1-0.2,0.1-0.3,0.2l-0.2,0.1c-0.1,0-0.1,0-0.2,0c-0.1,0-0.3,0.1-0.4,0.1c-0.1,0-0.3,0-0.4,0.1c-0.1,0-0.1,0-0.2,0l-0.3,0
		c-0.6,0-1.2-0.1-1.7-0.3c-0.6-0.2-1.1-0.5-1.7-0.8c-0.8-0.5-1.5-1.1-2.2-1.8c0-0.1,0-0.1,0-0.2c0-1.2-0.1-2.4-0.3-3.5
		c-0.1-1.2-0.4-2.3-0.6-3.5c-0.5-2.3-1.2-4.6-2-6.8c-0.4-1.1-0.9-2.2-1.3-3.3c-0.5-1.1-1-2.1-1.6-3.2c-0.1-0.1-0.2-0.2-0.3-0.3
		c-0.4-0.2-0.9-0.1-1.2,0.3l0,0c-0.5,0.9-1.3,1.8-2,2.7c-0.4,0.4-0.7,0.9-1.1,1.3c-0.4,0.4-0.8,0.8-1.2,1.2
		c-0.4,0.4-0.8,0.8-1.2,1.2l-0.6,0.6l-0.7,0.5c-0.9,0.7-1.8,1.4-2.7,2c-1,0.6-1.9,1.2-2.9,1.8c-1,0.6-2,1.1-3,1.6
		c-0.5,0.3-1,0.5-1.6,0.7c-0.5,0.2-1,0.5-1.6,0.7l-1.6,0.6L147,43c-0.2,0.1-0.5,0.2-0.8,0.3l-1.7,0.5l-0.8,0.3l-0.8,0.2
		c-1.1,0.3-2.2,0.6-3.3,0.8l-1.7,0.4l-1.7,0.3c-1.1,0.2-2.3,0.4-3.4,0.6c-1.1,0.1-2.3,0.3-3.4,0.4c-0.6,0.1-1.1,0.1-1.7,0.1
		c-0.6,0-1.2,0.1-1.7,0.1c-0.6,0-1.2,0-1.7,0c-0.6,0-1.2,0-1.7-0.1c-1.2-0.1-2.3-0.1-3.4-0.3l0,0c0,0,0,0,0,0c0,0-0.1,0.1-0.1,0.1
		c0.5,1.8,1.1,3.5,1.9,5.2c0.6,1.5,1.3,2.9,2,4.3c-0.7,0.6-1.4,1.5-2.1,2.5c-0.8,1.2-1.4,2.7-1.7,4.5c-0.1,0.4-0.1,0.9-0.1,1.4
		c0,0.2,0,0.4,0,0.7l0,0.3l0,0.1l0,0l0,0.1l0,0l0,0.2c0.1,0.5,0.1,1,0.3,1.5c0.1,0.2,0.1,0.5,0.3,0.7c0.1,0.2,0.2,0.5,0.4,0.7
		c0.5,0.9,1.3,1.8,2.2,2.5c0.9,0.7,1.9,1.2,2.9,1.6c1.1,0.4,2.1,0.7,3.3,0.8c0.6,0.1,1.2,0,1.6,0.1c0,0,0,0,0,0c0,0,0,0.1,0,0.1
		c0,0.1,0,0.2,0,0.4l0,0.1l0,0.1c0,0.1,0,0.2,0,0.3c0,0.2,0.1,0.4,0.2,0.6c0.2,0.4,0.7,0.8,1.2,0.8c0.5,0.1,0.9,0,1.2-0.2
		c0.2-0.1,0.3-0.2,0.5-0.3c0.1-0.1,0.2-0.1,0.2-0.2l0.1-0.2l0,0c0.1-0.1,0,0,0,0l0,0l0.1-0.1c0-0.1,0.1-0.1,0.1-0.2
		c0.1-0.1,0.2-0.3,0.2-0.4c0.1-0.3,0.3-0.5,0.4-0.8c0.2-0.4,0.3-0.9,0.3-1.4l1.9,1.8l0.6,0.5c-0.3,0.3-0.6,0.8-1,1.3
		c-0.4,0.5-0.8,1.1-1.2,1.8c-0.4,0.7-0.9,1.4-1.3,2.3c-0.1,0.2-0.2,0.4-0.3,0.7c-0.1,0.2-0.2,0.4-0.3,0.7l-0.1,0.3l0,0.1l0,0
		c0,0.1,0,0,0,0l0,0l0,0l0,0.2c-0.1,0.3-0.1,0.5-0.2,0.8c-0.2,1.1,0,2.4,0.6,3.4c0.2,0.2,0.3,0.5,0.5,0.7l0.3,0.3
		c0.1,0.1,0.2,0.2,0.3,0.3c0.4,0.4,0.9,0.7,1.4,0.9c0.5,0.2,1,0.4,1.6,0.5c0.3,0.1,0.6,0.1,0.9,0.1c0.1,0,0.2,0,0.2,0l0.2-0.1
		c0.1-0.1,0.3-0.2,0.4-0.3l0.1-0.1l0,0l0,0c0,0,0,0,0,0l0,0l0.1-0.2c0.1-0.1,0.1-0.3,0.1-0.5c0-0.3-0.1-0.6-0.2-0.9
		c-0.1-0.1-0.1-0.2-0.2-0.4l-0.2-0.3l-0.2-0.3l-0.1-0.3c-0.1-0.4,0-0.6,0.2-0.9c0.1-0.1,0.1-0.1,0.2-0.2l0.2-0.2
		c0.2-0.1,0.3-0.3,0.5-0.4c0.3-0.3,0.6-0.6,0.9-0.9c0.3-0.3,0.6-0.5,0.9-0.8c0.3-0.3,0.6-0.5,0.8-0.7c0.3-0.2,0.5-0.5,0.8-0.7
		c0.4-0.4,0.8-0.7,1.2-1c0.4,0.2,0.7,0.5,1.1,0.7c1.6,1,3.2,1.8,4.9,2.6c1.7,0.8,3.4,1.5,5.2,2.1c1.8,0.6,3.6,1.1,5.4,1.4l0.4,0.1
		l0.3,0c0.3,0,0.5,0,0.7,0.1c0.5,0,1,0,1.4-0.1c1-0.1,1.9-0.4,2.8-0.9c0.9-0.5,1.6-1.2,2.1-2c0.2-0.4,0.5-0.9,0.6-1.3
		c0.1-0.2,0.1-0.5,0.1-0.8c0-0.3-0.1-0.6-0.4-0.8c-0.2-0.2-0.5-0.3-0.8-0.3c-0.3,0-0.5,0.1-0.8,0.2c-0.2,0.1-0.5,0.2-0.7,0.4
		c-0.2,0.1-0.4,0.3-0.5,0.3c-0.4,0.1-0.8,0.2-1.2,0.2c-0.4,0-0.8-0.1-1.2-0.3c-0.4-0.2-0.8-0.5-1.2-0.7c-0.4-0.3-0.7-0.5-1.1-0.8
		c-0.3-0.3-0.7-0.6-1-0.9c-0.3-0.3-0.7-0.6-1-1c-1.2-1.2-2.2-2.6-3.1-4c1-0.3,2-0.6,3-1c1.1-0.5,2.1-1,3.1-1.6
		c0.5-0.3,1-0.6,1.5-0.9c0.5-0.3,1-0.7,1.4-1l0.7-0.6c0.2-0.2,0.5-0.4,0.7-0.6l1.3-1.2l1.2-1.3l0.3-0.3l0.3-0.4l0.5-0.7l0.5-0.7
		c0.2-0.2,0.3-0.5,0.5-0.8l0.9-1.5l0.7-1.6l0.4-0.8c0.1-0.3,0.2-0.6,0.3-0.8l0.2-0.5c0.5,0.1,1.1,0.2,1.7,0.2c0.7,0.1,1.5,0.1,2.2,0
		c0.7,0,1.4-0.2,2.1-0.3l1-0.3l0.2-0.1l0.1,0c0.1,0,0.1,0,0.2-0.1l0.5-0.2c0.7-0.3,1.3-0.6,1.9-1.1c0.6-0.4,1.1-0.9,1.5-1.5
		c0.5-0.6,0.9-1.1,1.2-1.8c0.3-0.6,0.5-1.3,0.5-2.1C187.1,50.7,187,50.5,187,50.4z M133.4,73.6c-0.1,0.2-0.2,0.4-0.4,0.6
		c-0.1,0.1-0.1,0.2-0.2,0.3c0,0-0.1,0.1-0.1,0.1l-0.1,0.1l0,0l0,0l-0.2,0.1c0,0-0.1,0-0.1,0.1c-0.1,0-0.2,0.1-0.2,0.1
		c-0.2,0.1-0.3,0.1-0.4,0c-0.1,0-0.1-0.1-0.1-0.1c0,0,0-0.1,0-0.2c0,0,0-0.1,0-0.1l0-0.1l0-0.1c0-0.1,0-0.3,0-0.5
		c0-0.2,0-0.3-0.1-0.6c0-0.1-0.1-0.3-0.2-0.4c-0.1-0.1-0.2-0.3-0.4-0.4c-0.3-0.2-0.5-0.2-0.7-0.2c-0.7-0.1-1.1,0-1.6-0.1
		c-1-0.1-2-0.5-2.9-0.8c-0.9-0.4-1.8-0.9-2.5-1.4c-0.7-0.6-1.3-1.2-1.8-2c-0.1-0.2-0.2-0.4-0.3-0.6c-0.1-0.2-0.2-0.4-0.2-0.6
		c-0.2-0.4-0.2-0.8-0.3-1.2l0-0.2l0,0c0,0,0,0.1,0,0l0,0l0-0.1l0-0.3c0-0.2,0-0.4-0.1-0.7c0-0.4-0.1-0.8,0-1.2c0-1.6,0.4-3.1,1-4.3
		c0.6-1.2,1.3-2.2,1.9-2.9c0.7-0.7,1.3-1.2,1.7-1.5c0.2-0.2,0.4-0.3,0.5-0.3c0.1-0.1,0.2-0.1,0.2-0.1s0.2-0.1,0.7-0.3
		c0.5-0.2,1.2-0.5,2.2-0.7c0.5-0.1,1-0.2,1.6-0.2c0.6,0,1.2,0,1.8,0.2c1.3,0.3,2.4,1.3,2.9,2.8l0.1,0.3c0,0.1,0.1,0.2,0.1,0.3
		c0.1,0.2,0.1,0.4,0.1,0.5c0.1,0.4,0.1,0.7,0.1,1.1c-0.1,0.8-0.4,1.5-0.9,2.2c-1,1.4-2.6,2.7-4.4,3.8c-0.4,0.3-0.9,0.5-1.4,0.9
		c-0.5,0.4-0.8,0.9-1.1,1.4c-0.1,0.3-0.2,0.6-0.2,0.9c0,0.3,0,0.6,0.2,0.9c0.2,0.6,0.8,1,1.3,1.2c0.6,0.3,1.2,0.2,1.8,0.2
		c0.6,0,1.1,0,1.6,0.1c0.5,0.2,0.9,0.5,1.2,0.9c0.1,0.1,0.1,0.2,0.2,0.3c0.1,0.1,0.1,0.2,0.1,0.3c0,0.1,0.1,0.2,0.1,0.3
		c0,0.1,0,0.2,0,0.4C133.7,72.6,133.6,73.1,133.4,73.6z M129,66.3l0.8,1.1l0.9,1.1c0.2,0.3,0.5,0.6,0.7,0.9c-0.3,0-0.7,0-1,0
		c-0.5,0-1.1,0-1.5-0.2c-0.5-0.2-0.9-0.5-1-1c-0.2-0.4-0.1-0.9,0.1-1.4c0.1-0.2,0.2-0.4,0.4-0.6c0.1-0.1,0.2-0.2,0.3-0.3L129,66.3z
		 M143.4,80c-0.2,0.1-0.5,0.3-0.8,0.4c-0.3,0.2-0.6,0.3-0.9,0.5c-0.3,0.2-0.6,0.4-1,0.7c-0.3,0.2-0.7,0.5-1,0.8
		c-0.3,0.3-0.6,0.6-1,1l-0.2,0.3l-0.1,0.1l-0.1,0.1l-0.1,0.1l-0.2,0.3c-0.1,0.1-0.2,0.3-0.2,0.4c-0.1,0.1-0.1,0.3-0.2,0.4
		c-0.1,0.1-0.1,0.3-0.1,0.5c0,0.2,0,0.3,0.1,0.5c0,0.2,0.1,0.3,0.2,0.4c0.1,0.1,0.2,0.2,0.3,0.4l0.3,0.3c0.1,0.1,0.2,0.2,0.3,0.2
		c0.1,0.1,0.2,0.2,0.2,0.3c0.3,0.4,0.3,0.8-0.1,1c-0.3,0.3-0.8,0.2-1.2,0.1c-0.5-0.2-0.9-0.4-1.3-0.7c-0.4-0.3-0.8-0.6-1-1
		c-0.1-0.1-0.2-0.2-0.2-0.3l-0.2-0.3c-0.1-0.2-0.2-0.4-0.3-0.6c-0.4-0.8-0.4-1.6-0.2-2.5c0.1-0.2,0.1-0.4,0.2-0.6l0-0.2l0,0l0,0l0,0
		l0-0.1l0.1-0.3c0.1-0.2,0.2-0.4,0.2-0.7c0.1-0.2,0.2-0.4,0.2-0.6c0.3-0.8,0.7-1.6,1-2.3c0.3-0.7,0.6-1.4,0.9-2
		c0.2-0.5,0.4-1,0.6-1.3l0.9,0.8c0.7,0.6,1.5,1.1,2.2,1.7c0.9,0.7,1.9,1.3,2.8,2C143.6,79.9,143.5,80,143.4,80z M173.8,51.5
		c-0.1,1.1-0.2,2.2-0.4,3.3c-0.1,0.3-0.1,0.6-0.2,0.8l-0.1,0.4l-0.1,0.4l-0.5,1.6c-0.1,0.3-0.2,0.5-0.3,0.8l-0.3,0.8l-0.7,1.6
		l-0.8,1.5c-0.1,0.2-0.3,0.5-0.4,0.7l-0.5,0.7l-0.5,0.7l-0.2,0.4l-0.3,0.3l-1.1,1.3l-1.2,1.2c-0.2,0.2-0.4,0.4-0.6,0.6l-0.6,0.6
		c-0.4,0.4-0.9,0.7-1.3,1c-0.4,0.4-0.9,0.6-1.4,1c-1,0.6-2,1.1-3,1.6c-1,0.5-2.1,0.9-3.2,1.1l0,0c0,0-0.1,0-0.1,0
		c-0.1,0.1-0.2,0.3-0.1,0.4c1,1.6,2.1,3.1,3.4,4.4c0.3,0.3,0.7,0.6,1,1c0.3,0.3,0.7,0.6,1.1,0.9c0.4,0.3,0.7,0.6,1.1,0.8
		c0.4,0.3,0.8,0.5,1.2,0.7c0.9,0.5,1.9,0.6,2.9,0.2c0.3-0.1,0.4-0.2,0.6-0.4c0.2-0.1,0.3-0.2,0.5-0.3c0.4-0.2,0.8-0.1,1,0.1
		c0.2,0.2,0.2,0.6,0.1,1c-0.1,0.4-0.3,0.8-0.6,1.2c-0.5,0.7-1.1,1.3-1.9,1.7c-0.8,0.4-1.6,0.6-2.5,0.7c-0.4,0-0.9,0-1.3,0
		c-0.2,0-0.4,0-0.6-0.1l-0.3-0.1l-0.3-0.1c-1.8-0.4-3.5-0.9-5.2-1.5c-1.7-0.6-3.3-1.4-5-2.2c-0.8-0.4-1.6-0.8-2.4-1.3l-1.2-0.7
		c-0.4-0.2-0.8-0.5-1.2-0.7c-1.6-0.9-3.1-2-4.5-3c-0.7-0.5-1.5-1.1-2.2-1.6l-2.1-1.8l-2-1.8c-0.3-0.3-0.7-0.6-1-0.9l-1-1
		c-0.7-0.6-1.2-1.3-1.8-2l-0.9-1l-0.9-1.1l-0.2-0.2c0.2-0.1,0.4-0.2,0.6-0.3c1.9-0.9,3.8-2,5.1-3.7c0.6-0.9,1.1-1.9,1.1-3
		c0-0.5,0-1.1-0.1-1.5c-0.1-0.2-0.1-0.5-0.2-0.7c0-0.1-0.1-0.2-0.1-0.3l-0.1-0.3c-0.4-0.8-1-1.5-1.7-2c-0.7-0.5-1.5-0.8-2.2-0.9
		c-1.5-0.2-2.7,0.1-3.6,0.4c-1,0.3-1.7,0.6-2.2,0.8c-0.5,0.2-0.7,0.4-0.7,0.4s-0.1,0-0.2,0.1c-0.1,0.1-0.3,0.2-0.5,0.3
		c-0.4,0.2-0.9,0.6-1.5,1.1c-0.7-1.3-1.5-2.6-2.1-4c-0.8-1.6-1.5-3.2-2.1-4.9c1.1,0.3,2.2,0.4,3.3,0.5c0.6,0.1,1.2,0.1,1.7,0.1
		c0.6,0,1.2,0.1,1.7,0.1c0.6,0,1.2,0,1.7,0c0.6,0,1.2,0,1.8,0c1.2,0,2.3-0.1,3.5-0.2c1.2-0.1,2.3-0.2,3.5-0.4l1.7-0.3l1.7-0.3
		c1.2-0.2,2.3-0.5,3.4-0.8l0.9-0.2l0.8-0.2l1.7-0.5c0.3-0.1,0.5-0.1,0.9-0.2l0.8-0.3l1.7-0.6c0.6-0.2,1.1-0.4,1.6-0.6
		c0.5-0.2,1.1-0.4,1.6-0.7c1.1-0.5,2.1-1,3.2-1.6c0.5-0.3,1-0.5,1.5-0.9l1.5-0.9c1-0.7,2-1.3,2.9-2.1l0.7-0.6
		c0.2-0.2,0.4-0.4,0.7-0.6c0.4-0.4,0.9-0.8,1.3-1.2c0.4-0.4,0.9-0.8,1.3-1.3c0.4-0.4,0.8-0.9,1.2-1.3c0.5-0.5,0.9-1.1,1.3-1.7
		c0.3,0.6,0.6,1.2,0.8,1.7c0.5,1,0.9,2.1,1.3,3.1c0.8,2.1,1.5,4.3,2,6.5c0.3,1.1,0.5,2.2,0.6,3.3c0.2,1.1,0.3,2.2,0.3,3.4
		C173.9,49.3,173.9,50.4,173.8,51.5z M186,52.7c-0.3,0.6-0.8,1.1-1.3,1.5c-0.5,0.4-1,0.8-1.6,1.1c-0.6,0.3-1.2,0.5-1.7,0.7l-0.4,0.1
		c0,0-0.1,0-0.1,0l-0.1,0l-0.3,0l-1,0.2c-0.6,0.1-1.3,0.2-1.9,0.2c-0.3,0-0.6,0-1,0c-0.3,0-0.6,0-0.9-0.1c-0.4,0-0.8-0.1-1.3-0.2
		l0.1-0.4c0.1-0.3,0.1-0.6,0.2-0.8c0.3-1.2,0.4-2.3,0.5-3.5c0.1-0.8,0.1-1.6,0.1-2.4c0,0.1,0.1,0.1,0.1,0.2c0.4,0.6,0.9,1.1,1.4,1.6
		c0.5,0.5,1.2,0.9,1.8,1.2c0.7,0.3,1.5,0.5,2.2,0.5c0.2,0,0.3,0,0.5,0c0.2,0,0.4,0,0.6-0.1c0.2,0,0.4-0.1,0.6-0.2
		c0.1,0,0.2-0.1,0.3-0.1l0.3-0.2c0.7-0.4,1.2-1.1,1.5-1.8l0.1-0.2c0-0.1,0.1-0.1,0.1-0.2c0.1-0.1,0.1-0.2,0.2-0.3
		c0.2-0.2,0.4-0.2,0.6-0.2c0.2,0,0.4,0.2,0.5,0.5c0.1,0.2,0.1,0.3,0.2,0.5c0,0.1,0.1,0.3,0,0.4C186.6,51.5,186.3,52.2,186,52.7z"/>
</g>
</svg>
